<svg xmlns="http://www.w3.org/2000/svg" xmlns:xlink="http://www.w3.org/1999/xlink" width="314.358" height="67.962" viewBox="0 0 314.358 67.962">
  <defs>
    <clipPath id="clip-path">
      <rect id="Retângulo_71" data-name="Retângulo 71" width="314.358" height="67.962" fill="none"/>
    </clipPath>
  </defs>
  <g id="Logo_01" data-name="Logo 01" transform="translate(-351 -25.038)">
    <g id="Grupo_136" data-name="Grupo 136" transform="translate(351 25.038)">
      <g id="Grupo_131" data-name="Grupo 131" transform="translate(0 0)" clip-path="url(#clip-path)">
        <path id="Caminho_124" data-name="Caminho 124" d="M41.786,54.762a27.076,27.076,0,0,1-7.1-.641,5.432,5.432,0,0,1-2.475-1.24,3.325,3.325,0,0,1-.354-4.472,2.216,2.216,0,0,1,.315-.379c1.9-1.561,2.28-3.718,2.346-5.987a75.054,75.054,0,0,0,.023-9.2c-.064-.682-.034-1.492-.846-1.706-.865-.228-1.281.518-1.617,1.132a46.508,46.508,0,0,0-2.66,6.623c-1.444,3.988-2.673,8.053-4.283,11.983a6.438,6.438,0,0,1-.657,1.227,1.241,1.241,0,0,1-2.295-.072,14.293,14.293,0,0,1-.848-1.778c-2.154-5.042-3.779-10.274-5.609-15.433-.42-1.186-.834-2.376-1.315-3.538-.238-.574-.588-1.27-1.342-1.1-.734.16-.78.919-.815,1.552a113.117,113.117,0,0,0-.15,12.728,4.07,4.07,0,0,0,1.985,3.456,3.163,3.163,0,0,1-.273,5.6,9.007,9.007,0,0,1-3.366,1.013,18.89,18.89,0,0,1-7.19-.256,3.764,3.764,0,0,1-3.2-3.653A2.089,2.089,0,0,1,1.14,48.465c2.127-1.017,2.879-2.749,2.95-4.978.056-1.776.323-3.545.394-5.321.19-4.79.346-9.581.438-14.376a83.839,83.839,0,0,0-.243-9.107,15.13,15.13,0,0,0-.37-2.1,3.308,3.308,0,0,0-1.641-2.258c-.191-.105-.355-.258-.538-.379A3.619,3.619,0,0,1,.265,6.283a4.115,4.115,0,0,1,2.787-3.47A19.174,19.174,0,0,1,8.186,1.72a19.583,19.583,0,0,1,6.228.256,3.729,3.729,0,0,1,2.779,2.216q2.813,6.569,5.622,13.14,1.183,2.754,2.4,5.493c.25.56.562,1.062,1.3,1.09a1.5,1.5,0,0,0,1.447-1.024c1.145-2.28,1.969-4.694,2.931-7.05,1.293-3.168,2.559-6.348,3.821-9.528a6.672,6.672,0,0,1,6.145-4.562,18.426,18.426,0,0,1,7.648.622,4.179,4.179,0,0,1,3.025,4.974A2.669,2.669,0,0,1,50.7,9.087c-1.918,1.659-2.449,3.869-2.647,6.25A132.991,132.991,0,0,0,47.6,29.622c.115,4.707.26,9.413.738,14.105a5.1,5.1,0,0,0,2.169,3.691,3.6,3.6,0,0,1-.692,5.991,10.418,10.418,0,0,1-3.02,1.042,25.027,25.027,0,0,1-5.009.311" transform="translate(-0.017 -0.497)" fill="#e14681"/>
        <path id="Caminho_125" data-name="Caminho 125" d="M413.094,25.708c.089-3.784-.021-7.564-.183-11.343-.032-.738-.1-1.476-.169-2.212a3.711,3.711,0,0,0-2.121-3.113c-.826-.432-1.662-.848-2.466-1.316a2.881,2.881,0,0,1-.047-4.885,10.008,10.008,0,0,1,4.744-1.479,45.257,45.257,0,0,1,11.322.124,9.349,9.349,0,0,1,3.433,1.075,3.236,3.236,0,0,1,1.63,3.559,1.944,1.944,0,0,1-.861,1.257,15.973,15.973,0,0,1-1.735,1.1,4.754,4.754,0,0,0-2.692,4.579c-.168,6.058-.1,12.115-.147,18.172a49.738,49.738,0,0,1-.615,8.017,15.219,15.219,0,0,1-6.632,10.188,28.571,28.571,0,0,1-13.113,4.7,41.915,41.915,0,0,1-13.511-.488,25.416,25.416,0,0,1-12.041-5.735,14.588,14.588,0,0,1-4.857-8.991c-.822-5.208-.472-10.439-.391-15.669a76,76,0,0,0-.1-10.264,4.067,4.067,0,0,0-1.677-2.815,15.929,15.929,0,0,1-2.055-1.642,3.373,3.373,0,0,1,.4-5.236,9.248,9.248,0,0,1,4.592-1.633,57.252,57.252,0,0,1,7.463-.545A50.023,50.023,0,0,1,392.4,1.98a7.311,7.311,0,0,1,2.45.927,3.589,3.589,0,0,1,1.771,3.467,3.117,3.117,0,0,1-1.99,2.781,2.7,2.7,0,0,1-.368.182c-2.389.722-3.031,2.569-3.077,4.782-.08,3.808-.115,7.618-.223,11.426-.062,2.164-.193,4.329-.116,6.491.139,3.929,1.477,7.29,4.9,9.537a11.932,11.932,0,0,0,8.067,1.624,11.031,11.031,0,0,0,6.159-2.5,9.431,9.431,0,0,0,3.107-7.34c.072-2.548.015-5.1.015-7.648" transform="translate(-114.948 -0.333)" fill="#e14681"/>
        <path id="Caminho_126" data-name="Caminho 126" d="M103.759,53.087q-8.367,0-16.733,0a6.336,6.336,0,0,1-2.576-.44,3.073,3.073,0,0,1-1.7-3.76,1.707,1.707,0,0,1,.778-1.022,10.076,10.076,0,0,1,1.371-.749,4.5,4.5,0,0,0,2.882-3.778,86.731,86.731,0,0,0,1.161-16.775,95.16,95.16,0,0,0-.684-12.214,18.536,18.536,0,0,0-.916-3.992,2.878,2.878,0,0,0-2.1-2.007c-.212-.049-.416-.138-.624-.207-1.811-.6-2.389-1.394-2.321-3.188a3.35,3.35,0,0,1,2.661-3.148,12.842,12.842,0,0,1,2.859-.3c8.077-.013,16.155.006,24.233-.036A47.288,47.288,0,0,0,122.283.656q.922-.208,1.83-.477a3.648,3.648,0,0,1,4.111,1.354A13.152,13.152,0,0,1,130.944,12.5a3.714,3.714,0,0,1-4.676,3.111,4.206,4.206,0,0,1-2.315-1.991,12.123,12.123,0,0,0-2.728-3.045,9.89,9.89,0,0,0-4.866-1.6,33.409,33.409,0,0,0-7.882-.111c-2.546.338-3.436,1.237-3.524,3.784-.09,2.629-.072,5.263-.023,7.894.03,1.614.666,2.22,2.275,2.315a14.983,14.983,0,0,0,3.2.054,2.374,2.374,0,0,0,2.247-2.045c.207-1.018.323-2.054.511-3.076a3.368,3.368,0,0,1,2.812-2.935,3.426,3.426,0,0,1,3.314,2.128,14.607,14.607,0,0,1,1.229,4.75A29.572,29.572,0,0,1,119.9,33.3a12.951,12.951,0,0,1-1.048,2.672,3.327,3.327,0,0,1-1.987,1.74c-1.789.535-2.886-.071-3.3-1.867-.166-.719-.249-1.457-.415-2.176A4.647,4.647,0,0,0,107.11,30.4a1.981,1.981,0,0,0-1.254,1.213,7.569,7.569,0,0,0-.448,2.493,51.34,51.34,0,0,0,.511,8.52,2.574,2.574,0,0,0,2.491,2.607,30.472,30.472,0,0,0,10.805-.219,9.711,9.711,0,0,0,6.883-5.379c.5-.945.96-1.908,1.543-2.808a3.339,3.339,0,0,1,3.517-1.613,3.443,3.443,0,0,1,2.626,2.249,7.392,7.392,0,0,1,.278,4.756,28.874,28.874,0,0,1-4.079,9.89,3.381,3.381,0,0,1-3.774,1.669c-4.815-.918-9.683-.656-14.538-.687-2.638-.016-5.275,0-7.913,0" transform="translate(-25.722 0)" fill="#e14681"/>
        <path id="Caminho_127" data-name="Caminho 127" d="M318.185,53.692a21.632,21.632,0,0,1-7.326-.806,6.3,6.3,0,0,1-2.918-1.772A3.525,3.525,0,0,1,308.229,46a7.623,7.623,0,0,0,2.781-5.968c.351-5.556.288-11.119.307-16.68.012-3.26.079-6.522-.142-9.78a13.014,13.014,0,0,0-.365-2.514,4.14,4.14,0,0,0-1.952-2.64,3.3,3.3,0,0,1-1.877-3.281,3.863,3.863,0,0,1,2.47-3.41,12.251,12.251,0,0,1,6.484-.545,52.668,52.668,0,0,0,10.518-.03c3.136-.293,6.262-.674,9.415.063a12.575,12.575,0,0,1,9.957,11.354,14.757,14.757,0,0,1-2.464,10.3,9.909,9.909,0,0,1-2.255,2.143c-1.342,1-1.285,2.189.174,3.045a13.239,13.239,0,0,1,3.441,2.5,13.186,13.186,0,0,1,2.716,6.079c.482,2.141.65,4.327.978,6.49a3.275,3.275,0,0,0,2.156,2.75,3.01,3.01,0,0,1,1.855,3.976,5.041,5.041,0,0,1-2.893,3.386,14.231,14.231,0,0,1-10.66.445c-2.537-.894-3.98-2.915-4.941-5.314a54.96,54.96,0,0,1-2.482-9.768,22.444,22.444,0,0,0-1.31-4.737,3.883,3.883,0,0,0-3.286-2.519,1.455,1.455,0,0,0-1.817,1.422,39.093,39.093,0,0,0-.1,6.731c.05,1.011.182,2.018.239,3.028A4.266,4.266,0,0,0,327,46.012a3.821,3.821,0,0,1,1.488,4.359,3.677,3.677,0,0,1-2.424,2.389,17.037,17.037,0,0,1-5.161.92c-.9.061-1.812.011-2.718.011M331.1,16a13.917,13.917,0,0,0-.5-3.909A3.883,3.883,0,0,0,328,9.059c-1.706-.495-2.729.146-2.994,1.883a13.283,13.283,0,0,0-.141,1.549c-.078,2.216-.124,4.432-.215,6.647a16.818,16.818,0,0,0,0,3.108,1.251,1.251,0,0,0,1.383,1.195,4.281,4.281,0,0,0,4.587-3.311A14.445,14.445,0,0,0,331.1,16" transform="translate(-95.95 -0.246)" fill="#e14681"/>
        <path id="Caminho_128" data-name="Caminho 128" d="M181.88,30.145a35.209,35.209,0,0,0,.309,5.35,3,3,0,0,0,1.608,2.411,3.058,3.058,0,0,1,1.9,2.58,2.546,2.546,0,0,1-1.205,2.37,7.8,7.8,0,0,1-3.418,1.091,41.3,41.3,0,0,1-13.186-.234,7.794,7.794,0,0,1-3.232-1.361c-1.281-.957-1.832-3.227.047-4.265,2.325-1.285,2.861-3.421,3.02-5.818.245-3.7.141-7.4.171-11.1.021-2.686.005-5.373-.025-8.059a18.666,18.666,0,0,0-.2-2.372,3.909,3.909,0,0,0-2.322-3.168,2.776,2.776,0,0,1-1.778-1.7,2.787,2.787,0,0,1,1.6-3.256,11.269,11.269,0,0,1,6.346-.911,74.657,74.657,0,0,0,12.99-.036c3.845-.359,7.678-.481,11.38.925a11.371,11.371,0,0,1,6.3,4.894c2.392,4.251,1.358,10.879-3.558,13.485-.121.065-.239.135-.353.21-1.059.687-1.037,1.6.086,2.2.749.4,1.555.693,2.3,1.1a8.977,8.977,0,0,1,4.314,6.035c.434,1.644.652,3.328.942,5a2.668,2.668,0,0,0,2.018,2.331c1.189.332,2.187.857,2.29,2.236a3.549,3.549,0,0,1-1.792,3.133,8.1,8.1,0,0,1-3.67,1.354,19.333,19.333,0,0,1-8.483-.255,8.146,8.146,0,0,1-5.176-4.382,40.144,40.144,0,0,1-2.61-8.2,14.251,14.251,0,0,0-1.206-3.4,4.072,4.072,0,0,0-4.2-2.114,1.2,1.2,0,0,0-1.045,1,14.071,14.071,0,0,0-.17,2.92m-.329-13.269c0,.19,0,.437,0,.683,0,.274,0,.549.01.822.049.988.362,1.343,1.341,1.4a6.984,6.984,0,0,0,1.473-.1,3.829,3.829,0,0,0,3.386-2.722,10.6,10.6,0,0,0,.006-6.15,3.6,3.6,0,0,0-3.395-2.762,1.96,1.96,0,0,0-2.464,2.039c-.144,2.241-.239,4.485-.357,6.785" transform="translate(-51.099 -0.447)" fill="#e14681"/>
        <path id="Caminho_129" data-name="Caminho 129" d="M265.158,23.083c.041-4.676-.084-8.453-.311-12.228a3.143,3.143,0,0,0-1.734-2.786c-.6-.321-1.233-.6-1.816-.96a2.328,2.328,0,0,1-.082-4.149,7.194,7.194,0,0,1,3.263-1.041,32.536,32.536,0,0,1,10.565.224,5.529,5.529,0,0,1,2.18.925c1.261.923,1.463,3.17-.137,3.927-.049.023-.087.071-.137.091-2.508,1.023-3.09,2.959-3.113,5.527-.044,5.041.016,10.084-.106,15.124a20.956,20.956,0,0,1-1.03,6.955c-1.417,3.77-4.233,6.172-7.826,7.785a29.556,29.556,0,0,1-13.586,2.277,24.924,24.924,0,0,1-12.152-3.364A13.089,13.089,0,0,1,232.5,31.105c-.5-4.549-.11-9.086-.1-13.628,0-1.805.153-3.6.012-5.417a4.21,4.21,0,0,0-1.867-3.384,6.091,6.091,0,0,1-1.489-1.283,2.687,2.687,0,0,1,.478-3.927,7.819,7.819,0,0,1,4.3-1.452,46.688,46.688,0,0,1,14.26.294,6.379,6.379,0,0,1,2.374.88,2.832,2.832,0,0,1-.3,4.964c-.127.049-.24.14-.369.18-1.86.585-2.387,2.032-2.425,3.772-.081,3.7-.107,7.4-.227,11.093a25.008,25.008,0,0,0,.2,5.644,8.4,8.4,0,0,0,7.765,6.884A10.427,10.427,0,0,0,261.9,34.2a7.171,7.171,0,0,0,3.125-5.527c.226-2.16.114-4.325.137-5.594" transform="translate(-71.395 -0.499)" fill="#e14681"/>
        <path id="Caminho_130" data-name="Caminho 130" d="M361.657,93.8q-24.526,0-49.051.021c-.845,0-1.107-.212-1.027-1.043a19.01,19.01,0,0,0,.01-2.383c-.012-.417.121-.62.56-.578.19.018.384,0,.577,0q48.927,0,97.854,0c1.3,0,1.119-.131,1.132,1.145.008.768-.013,1.536.008,2.3.01.384-.12.564-.517.533-.219-.017-.439,0-.659,0H361.657" transform="translate(-97.386 -28.071)" fill="#a6bf36"/>
        <path id="Caminho_131" data-name="Caminho 131" d="M50.1,93.773q-24.521,0-49.041.019c-.813,0-1.136-.164-1.042-1.024a16.9,16.9,0,0,0,.012-2.3c-.012-.417.122-.619.561-.577.19.019.384,0,.577,0q48.917,0,97.836,0c1.3,0,1.136-.142,1.148,1.132.007.74-.012,1.481.006,2.22.01.382-.123.56-.52.529-.219-.017-.439,0-.659,0H50.1" transform="translate(0 -28.095)" fill="#a6bf36"/>
        <path id="Caminho_132" data-name="Caminho 132" d="M164.037,76.1c.83-.487,1.56-.912,2.286-1.343a.836.836,0,0,1,.852.076,50.986,50.986,0,0,1,7.369,4c.467.319.691.28,1.061-.142a18.544,18.544,0,0,0,4.112-7.132c.129-.454.309-.48.7-.354.678.219,1.367.406,2.06.573.509.123.661.3.4.837a27.1,27.1,0,0,1-5.115,7.7c-.466.463-.164.595.172.831a42.742,42.742,0,0,1,5.712,4.573c.5.5.531.747-.154,1.1-1.714.883-1.7.913-3.113-.326-1.487-1.3-3.012-2.555-4.611-3.72a.629.629,0,0,0-.912-.012,54.036,54.036,0,0,1-13.5,7.1.837.837,0,0,1-1.024-.177c-.492-.473-1.037-.893-1.6-1.373a2.225,2.225,0,0,1,.947-.445,53.265,53.265,0,0,0,12.617-6.318c.787-.557.778-.558-.01-1.078a48.424,48.424,0,0,0-8.242-4.364" transform="translate(-49.613 -22.237)" fill="#a6bf36"/>
        <path id="Caminho_133" data-name="Caminho 133" d="M282.622,80.577c0-2.931.016-5.863-.013-8.794-.006-.594.122-.857.766-.789.759.08,1.732-.3,2.233.144.52.462.164,1.448.167,2.2.02,4.356.01,8.712.01,13.069,0,1.026.017,1.066.993.681a19.813,19.813,0,0,0,7.083-4.823c.482-.5.808-.606,1.328-.126a5.811,5.811,0,0,0,1.135.813c.6.328.445.565.023.936a25.4,25.4,0,0,1-12.955,6.191c-.65.1-.788-.087-.782-.708.03-2.931.013-5.863.013-8.794" transform="translate(-88.335 -22.166)" fill="#a6bf36"/>
        <path id="Caminho_134" data-name="Caminho 134" d="M231.463,80.547c0-2.9.021-5.809-.016-8.713-.008-.663.195-.871.835-.813a9.013,9.013,0,0,0,1.646,0c.6-.056.722.192.719.747-.02,4.9-.012,9.81-.011,14.714,0,.964.014.994.939.636a19.9,19.9,0,0,0,7.155-4.862c.469-.486.8-.547,1.257-.09a3.109,3.109,0,0,0,.4.294c1.33.956,1.351.981.062,2.049a24.973,24.973,0,0,1-12.262,5.6c-.63.1-.734-.129-.73-.687.022-2.959.01-5.919.01-8.878" transform="translate(-72.343 -22.196)" fill="#a6bf36"/>
        <path id="Caminho_135" data-name="Caminho 135" d="M258.737,88.674c1.019-.661,1.987-1.222,2.88-1.881,2.069-1.529,3.982-3.194,4.714-5.82A14.645,14.645,0,0,0,266.818,77c0-1.78.013-3.561-.008-5.341-.005-.484.121-.706.645-.662.815.069,1.851-.322,2.393.151.522.456.145,1.5.162,2.284.03,1.369-.036,2.74.017,4.107a11.14,11.14,0,0,1-3.049,8.081,24.853,24.853,0,0,1-5.169,4.3c-.259.168-.5.313-.828.111-.714-.445-1.44-.87-2.244-1.353" transform="translate(-80.874 -22.163)" fill="#a6bf36"/>
        <path id="Caminho_136" data-name="Caminho 136" d="M218.857,75.74a31.288,31.288,0,0,1-.129,4.325c-.6,3.227-2.618,5.537-4.991,7.606A29.106,29.106,0,0,1,210.7,89.92a.78.78,0,0,1-.973.025c-.507-.327-1.028-.631-1.558-.918-.506-.274-.5-.471.011-.749a22.143,22.143,0,0,0,4.794-3.575,9.385,9.385,0,0,0,2.711-6.753c.071-2.051.041-4.107.012-6.161-.008-.583.1-.865.758-.8.758.081,1.734-.3,2.23.144.512.461.129,1.448.165,2.2.032.711.007,1.424.007,2.4" transform="translate(-64.95 -22.166)" fill="#a6bf36"/>
      </g>
    </g>
  </g>
</svg>
